<svg viewBox="0 0 8.4666667 10.58333337" xmlns="http://www.w3.org/2000/svg"><path style="fill:#c6552c" d="m5.8161592.79235366a.26460979.26460979 0 0 0 -.0377.0041h-4.7196099a.26460979.26460979 0 0 0 -.26613997.26561694v5.5547001c0 .581651.47714997 1.0567828 1.05884987 1.0567828h4.7635399a.26460979.26460979 0 0 0 .0951-.0098c.5369603-.0491.9637602-.497867.9637602-1.046965v-2.1171819a.26460979.26460979 0 0 0 -.26561-.2635499h-1.3224002v-3.1739661a.26460979.26460979 0 0 0 -.2697499-.26975094zm-4.4937799.53330094h4.23436v3.1253901a.26460979.26460979 0 0 0 0 .09147v2.0742928c0 .1934732.0565.3728501.1483098.5291662h-3.8535099c-.2977799 0-.5291599-.2316052-.5291599-.5291662zm.7673899 1.05885a.26500138.26500138 0 0 0 .0274.529167h2.6442799a.26464845.26464845 0 1 0 0-.529167h-2.6442799a.26460982.26460982 0 0 0 -.0274 0zm0 1.0583331a.26519611.26519611 0 0 0 .0274.5296839h2.6442799a.26484199.26484199 0 1 0 0-.5296839h-2.6442799a.26460982.26460982 0 0 0 -.0274 0zm.0274 1.0567829a.26464845.26464845 0 1 0 0 .5291669h2.6442799a.26464845.26464845 0 1 0 0-.5291669zm3.96875.2656171h1.05885v1.8515668c0 .2966831-.2305899.5278052-.5271.5291662a.26460979.26460979 0 0 0 -.003 0c-.2977798 0-.5291698-.2316052-.5291698-.5291662zm-3.9951.792716a.26460982.26460982 0 0 0 -.001.0005291.26500132.26500132 0 0 0 .0274.529167h2.64428a.2646484.2646484 0 1 0 0-.529167h-2.64428a.26460982.26460982 0 0 0 -.0263-.0005291z"/></svg>