<!-- Generated by IcoMoon.io -->
<svg version="1.1" xmlns="http://www.w3.org/2000/svg" width="26" height="32" viewBox="0 0 26 32">
<title>article-icon</title>
<path fill="#c6552c" d="M17.586 2.396c-0.041 0.002-0.081 0.006-0.119 0.013l0.005-0.001h-14.27c-0.001 0-0.003 0-0.005 0-0.442 0-0.8 0.358-0.8 0.8 0 0.001 0 0.002 0 0.003v-0 16.795c0 1.759 1.443 3.195 3.202 3.195h14.403c0.019 0.002 0.041 0.003 0.063 0.003 0.080 0 0.157-0.012 0.23-0.034l-0.006 0.001c1.624-0.148 2.914-1.505 2.914-3.166v-6.402c-0.002-0.441-0.359-0.797-0.8-0.797-0.001 0-0.002 0-0.003 0h-3.998v-9.597c0-0.005 0-0.010 0-0.016 0-0.442-0.358-0.8-0.8-0.8-0.006 0-0.011 0-0.017 0h0.001zM3.998 4.008h12.803v9.45c-0.008 0.042-0.012 0.089-0.012 0.138s0.004 0.097 0.013 0.143l-0.001-0.005v6.272c0 0.585 0.171 1.127 0.448 1.6h-11.652c-0.9 0-1.6-0.7-1.6-1.6zM6.319 7.21c-0.416 0.032-0.742 0.377-0.742 0.799 0 0.443 0.359 0.801 0.801 0.801 0.008 0 0.017-0 0.025-0l-0.001 0h7.995c0.005 0 0.011 0 0.018 0 0.442 0 0.8-0.358 0.8-0.8s-0.358-0.8-0.8-0.8c-0.006 0-0.012 0-0.019 0l0.001-0h-7.995c-0.012-0.001-0.027-0.001-0.041-0.001s-0.029 0-0.043 0.001l0.002-0zM6.319 10.41c-0.424 0.023-0.76 0.373-0.76 0.801 0 0.443 0.359 0.802 0.802 0.802 0.014 0 0.029-0 0.043-0.001l-0.002 0h7.995c0 0 0 0 0 0 0.442 0 0.801-0.359 0.801-0.801s-0.359-0.801-0.801-0.801c-0 0-0 0-0 0h-7.995c-0.012-0.001-0.027-0.001-0.041-0.001s-0.029 0-0.043 0.001l0.002-0zM6.402 13.605c-0.005-0-0.011-0-0.018-0-0.442 0-0.8 0.358-0.8 0.8s0.358 0.8 0.8 0.8c0.006 0 0.012-0 0.019-0l-0.001 0h7.995c0.005 0 0.011 0 0.018 0 0.442 0 0.8-0.358 0.8-0.8s-0.358-0.8-0.8-0.8c-0.006 0-0.012 0-0.019 0l0.001-0zM18.402 14.408h3.202v5.598c0 0.897-0.697 1.596-1.594 1.6-0.001 0-0.003 0-0.005 0s-0.003 0-0.005 0h0c-0.9 0-1.6-0.7-1.6-1.6zM6.322 16.805c-0.005 0.003-0.006 0.003-0.007 0.004l0.004-0.002c-0.416 0.032-0.742 0.377-0.742 0.799 0 0.443 0.359 0.801 0.801 0.801 0.008 0 0.017-0 0.025-0l-0.001 0h7.995c0.005 0 0.011 0 0.018 0 0.442 0 0.8-0.358 0.8-0.8s-0.358-0.8-0.8-0.8c-0.006 0-0.012 0-0.019 0l0.001-0h-7.995c-0.017-0.001-0.036-0.002-0.056-0.002-0.008 0-0.017 0-0.025 0l0.001-0z"></path>
</svg>
