<!-- Generated by IcoMoon.io -->
<svg version="1.1" xmlns="http://www.w3.org/2000/svg" width="26" height="32" viewBox="0 0 26 32">
<title>event-icon</title>
<path fill="#c6552c" d="M20.122 4.531h-0.794v-0.87c0-0.008 0-0.017 0-0.026 0-0.551-0.447-0.998-0.998-0.998-0.009 0-0.018 0-0.027 0l0.001-0c-0.566 0-1.024 0.458-1.024 1.024v0 0.87h-8.96v-0.87c0-0.566-0.458-1.024-1.024-1.024v0c-0.008-0-0.017-0-0.026-0-0.551 0-0.998 0.447-0.998 0.998 0 0.009 0 0.018 0 0.027l-0-0.001v0.87h-0.794c-1.697 0-3.072 1.375-3.072 3.072v0 12.288c0 1.697 1.375 3.072 3.072 3.072v0h14.643c1.697 0 3.072-1.375 3.072-3.072v0-12.288c0-1.697-1.375-3.072-3.072-3.072v0zM5.478 6.579h0.794v0.461c-0 0.008-0 0.017-0 0.026 0 0.551 0.447 0.998 0.998 0.998 0.009 0 0.018-0 0.027-0l-0.001 0c0.566 0 1.024-0.458 1.024-1.024v0-0.461h8.96v0.461c0 0.566 0.458 1.024 1.024 1.024v0c0.008 0 0.017 0 0.026 0 0.551 0 0.998-0.447 0.998-0.998 0-0.009-0-0.018-0-0.027l0 0.001v-0.461h0.794c0.566 0 1.024 0.458 1.024 1.024v0 1.382h-16.691v-1.382c0-0.566 0.458-1.024 1.024-1.024v0zM20.122 20.915h-14.643c-0.566 0-1.024-0.458-1.024-1.024v0-8.858h16.691v8.858c0 0.566-0.458 1.024-1.024 1.024v0z"></path>
<path fill="#c6552c" d="M15.923 12.979l-4.198 3.712-1.69-1.741c-0.188-0.194-0.451-0.315-0.742-0.315-0.57 0-1.032 0.462-1.032 1.032 0 0.279 0.11 0.531 0.29 0.717l-0-0 2.381 2.432c0.186 0.19 0.445 0.307 0.731 0.307 0.004 0 0.008-0 0.012-0h-0.001c0.255-0.008 0.487-0.103 0.667-0.257l-0.001 0.001 4.941-4.352c0.213-0.189 0.346-0.463 0.346-0.768 0-0.566-0.459-1.025-1.025-1.025-0.261 0-0.499 0.097-0.679 0.258l0.001-0.001z"></path>
</svg>
