<!-- Generated by IcoMoon.io -->
<svg version="1.1" xmlns="http://www.w3.org/2000/svg" width="26" height="32" viewBox="0 0 26 32">
<title>guide-icon</title>
<path fill="#c6552c" d="M3.104 3.84c-0.997 0-1.824 0.827-1.824 1.824v14.272c0 0.997 0.827 1.824 1.824 1.824h14.272c0.997 0 1.824-0.827 1.824-1.824v-4.504l4.896-4.888c0.14-0.139 0.226-0.331 0.226-0.544s-0.086-0.405-0.226-0.544l-2.32-2.32c-0.139-0.138-0.331-0.224-0.542-0.224-0.003 0-0.007 0-0.010 0h0.001c-0.209 0.002-0.399 0.087-0.536 0.224l-1.488 1.488v-2.96c0-0.997-0.827-1.824-1.824-1.824h-14.272zM3.104 5.376h14.272c0.174 0 0.288 0.114 0.288 0.288v4.504l-4.384 4.392c-0.138 0.139-0.224 0.331-0.224 0.542 0 0.001 0 0.001 0 0.002v-0 2.304c0 0.424 0.344 0.768 0.768 0.768h2.304c0.001 0 0.001 0 0.002 0 0.212 0 0.403-0.086 0.542-0.224l0.992-0.992v2.976c0 0.174-0.114 0.288-0.288 0.288h-14.272c-0.174 0-0.288-0.114-0.288-0.288v-14.272c0-0.174 0.114-0.288 0.288-0.288zM5.040 7.424c-0.407 0.022-0.729 0.357-0.729 0.768 0 0.425 0.344 0.769 0.769 0.769 0.014 0 0.028-0 0.042-0.001l-0.002 0h10.24c0.003 0 0.007 0 0.011 0 0.424 0 0.768-0.344 0.768-0.768s-0.344-0.768-0.768-0.768c-0.004 0-0.008 0-0.011 0h-10.239c-0.012-0.001-0.026-0.001-0.040-0.001s-0.028 0-0.042 0.001l0.002-0zM21.232 8.768l1.232 1.232-0.824 0.824-1.232-1.232 0.824-0.824zM5.040 10.496c-0.407 0.022-0.729 0.357-0.729 0.768 0 0.425 0.344 0.769 0.769 0.769 0.014 0 0.028-0 0.042-0.001l-0.002 0h8.96c0.003 0 0.007 0 0.011 0 0.424 0 0.768-0.344 0.768-0.768s-0.344-0.768-0.768-0.768c-0.004 0-0.008 0-0.011 0h-8.959c-0.012-0.001-0.026-0.001-0.040-0.001s-0.028 0-0.042 0.001l0.002-0zM19.32 10.68l1.232 1.232-4.744 4.728h-1.216v-1.216l4.728-4.744zM5.040 13.568c-0.407 0.022-0.729 0.357-0.729 0.768 0 0.425 0.344 0.769 0.769 0.769 0.014 0 0.028-0 0.042-0.001l-0.002 0h6.144c0.003 0 0.007 0 0.011 0 0.424 0 0.768-0.344 0.768-0.768s-0.344-0.768-0.768-0.768c-0.004 0-0.008 0-0.011 0h-6.143c-0.012-0.001-0.026-0.001-0.040-0.001s-0.028 0-0.042 0.001l0.002-0zM5.040 16.64c-0.407 0.022-0.729 0.357-0.729 0.768 0 0.425 0.344 0.769 0.769 0.769 0.014 0 0.028-0 0.042-0.001l-0.002 0h6.144c0.003 0 0.007 0 0.011 0 0.424 0 0.768-0.344 0.768-0.768s-0.344-0.768-0.768-0.768c-0.004 0-0.008 0-0.011 0h-6.143c-0.012-0.001-0.026-0.001-0.040-0.001s-0.028 0-0.042 0.001l0.002-0z"></path>
</svg>
